<?xml version="1.0" standalone="no"?>
<!DOCTYPE svg PUBLIC "-//W3C//DTD SVG 20010904//EN"
 "http://www.w3.org/TR/2001/REC-SVG-20010904/DTD/svg10.dtd">
<svg version="1.0" xmlns="http://www.w3.org/2000/svg"
 width="400.000000pt" height="400.000000pt" viewBox="0 0 400.000000 400.000000"
 preserveAspectRatio="xMidYMid meet">
<metadata>
Created by potrace 1.14, written by Peter Selinger 2001-2017
</metadata>
<g transform="translate(0.000000,400.000000) scale(0.100000,-0.100000)"
fill="#000000" stroke="none">
<path d="M1232 3458 c-19 -30 -20 -34 -4 -72 41 -106 87 -159 241 -275 132
-99 127 -95 167 -142 l30 -36 38 33 c21 18 36 37 33 41 -5 8 -59 45 -167 115
-92 59 -185 161 -278 306 l-40 62 -20 -32z"/>
<path d="M2760 3421 c-49 -92 -131 -174 -304 -305 l-156 -118 42 -38 43 -38
23 42 c31 55 102 127 190 193 115 86 184 162 219 244 9 21 8 31 -7 54 l-18 27
-32 -61z"/>
<path d="M1147 3268 c-54 -168 -70 -281 -70 -488 -1 -138 6 -247 16 -256 3 -3
14 3 24 13 10 10 38 35 63 56 l44 37 -46 0 c-34 0 -48 4 -52 17 -9 23 0 30 98
67 l88 33 -61 55 c-60 54 -75 83 -47 94 8 3 61 -4 118 -17 56 -12 128 -27 158
-33 45 -9 56 -15 58 -33 3 -20 -4 -26 -28 -25 -19 0 -95 14 -145 26 l-60 14
43 -38 c54 -48 52 -69 -6 -90 -38 -14 -41 -18 -28 -29 9 -8 16 -17 16 -21 0
-4 -35 -36 -77 -71 -166 -135 -283 -262 -337 -363 -14 -27 -25 -51 -23 -53 2
-2 34 10 70 27 116 52 132 34 59 -66 -100 -138 -209 -394 -137 -322 14 14 60
46 102 71 122 73 190 134 260 237 107 156 306 245 428 191 66 -30 98 -82 110
-176 3 -27 9 -53 14 -59 9 -11 14 -40 12 -63 -1 -15 -37 -18 -46 -4 -3 5 -26
8 -51 7 -81 -4 -167 53 -180 121 -3 17 -12 34 -20 37 -20 7 -17 33 4 45 27 14
117 4 162 -19 45 -23 50 -16 19 24 -52 67 -157 63 -276 -9 -18 -11 -33 -26
-33 -34 0 -29 67 -138 113 -183 73 -72 147 -84 237 -38 47 24 56 25 64 4 9
-22 -7 -38 -62 -64 -93 -44 -200 -23 -278 55 -36 36 -104 137 -104 155 0 24
-19 7 -35 -32 -67 -168 -47 -329 54 -435 44 -47 143 -105 217 -128 l42 -12 6
39 c15 93 109 336 136 353 13 8 39 -12 36 -28 -1 -7 -12 -32 -23 -57 -89 -193
-136 -440 -111 -579 21 -116 135 -187 244 -151 l36 12 -41 19 c-48 21 -62 33
-90 80 -81 133 81 284 256 240 181 -46 206 -246 41 -319 -46 -20 -47 -28 -7
-36 104 -20 199 30 230 123 19 56 14 222 -10 327 -21 94 -76 256 -106 314 -15
29 -15 34 -2 47 20 20 33 11 61 -46 26 -50 96 -252 96 -275 0 -8 4 -26 10 -40
l9 -26 58 22 c32 12 65 27 74 35 8 7 19 13 23 13 12 0 68 44 102 80 77 82 107
206 78 331 -15 65 -43 139 -53 139 -3 0 -12 -15 -20 -32 -16 -37 -62 -100
-102 -140 -72 -71 -182 -90 -271 -48 -63 29 -76 46 -55 67 15 16 20 15 58 -6
118 -67 235 -10 320 153 32 62 33 65 16 84 -10 11 -45 32 -78 46 -100 45 -200
32 -228 -31 -16 -35 -15 -35 27 -14 73 37 182 38 182 0 0 -10 -4 -21 -10 -24
-5 -3 -18 -25 -29 -48 -11 -23 -26 -50 -34 -60 -21 -26 -105 -54 -149 -51 -21
1 -40 -2 -44 -7 -8 -14 -41 -11 -48 6 -3 8 2 31 10 51 9 20 18 57 21 83 11 89
58 151 129 170 130 35 311 -57 414 -209 67 -99 162 -179 308 -260 23 -13 42
-27 42 -31 0 -5 9 -13 19 -18 18 -10 18 -7 -4 52 -48 131 -73 178 -158 295
-62 86 -35 105 73 51 34 -17 64 -29 66 -26 8 7 -48 101 -96 162 -57 71 -165
176 -267 259 -40 32 -73 62 -73 66 0 4 7 13 16 21 13 11 10 15 -28 29 -57 21
-60 43 -11 86 43 39 39 40 -72 16 -104 -23 -110 -22 -110 8 0 24 5 26 150 57
83 18 159 32 170 30 40 -4 28 -37 -35 -95 l-62 -56 86 -31 c95 -34 110 -44
100 -68 -5 -15 -35 -22 -71 -18 -21 3 -15 -15 10 -32 12 -9 38 -30 57 -47 l34
-31 9 23 c11 30 14 355 3 433 -5 33 -10 71 -11 85 -8 70 -72 290 -84 290 -4 0
-15 -16 -25 -35 -25 -46 -134 -155 -194 -195 -131 -86 -241 -236 -213 -289 8
-15 7 -23 -4 -35 -22 -21 -42 -10 -56 31 -20 63 -98 131 -141 124 -4 0 -12 8
-18 18 -8 16 -2 25 36 57 l45 38 -38 14 c-105 36 -257 36 -403 0 -71 -17 -76
-26 -40 -63 29 -30 30 -33 15 -49 -9 -9 -25 -16 -35 -16 -30 0 -85 -54 -111
-110 -26 -56 -41 -66 -64 -44 -13 14 -13 18 0 44 8 16 15 34 15 40 0 22 -96
113 -205 195 -124 93 -171 140 -216 220 -17 30 -32 55 -33 55 -1 0 -14 -37
-29 -82z m890 -292 c4 -4 8 -102 8 -218 0 -218 -4 -245 -40 -232 -13 5 -15 42
-15 228 0 123 3 225 6 228 7 8 31 4 41 -6z m-257 -539 c29 -14 46 -29 48 -43
4 -31 -24 -37 -57 -13 -15 11 -49 23 -76 27 -29 4 -52 14 -59 25 -27 43 60 45
144 4z m620 23 c27 -17 -2 -43 -63 -55 -31 -6 -65 -19 -75 -28 -23 -21 -52
-13 -52 14 0 22 34 46 92 64 52 16 78 18 98 5z m-470 -235 c7 -8 14 -48 15
-87 4 -119 -41 -231 -79 -199 -14 11 -13 18 4 63 13 36 18 73 17 131 -1 101
12 130 43 92z m209 6 c15 -9 17 -21 13 -88 -3 -62 0 -89 16 -130 16 -42 17
-55 7 -69 -17 -23 -33 -11 -58 45 -22 51 -31 177 -15 223 11 31 12 32 37 19z"/>
<path d="M1586 2143 c12 -45 50 -72 109 -80 45 -5 47 -5 36 16 -16 28 -82 71
-119 77 -25 4 -30 2 -26 -13z"/>
<path d="M2408 2150 c-36 -11 -85 -47 -99 -72 -10 -19 -9 -20 34 -15 54 7 79
21 101 57 22 38 14 45 -36 30z"/>
<path d="M1195 1959 c-48 -49 -187 -149 -206 -149 -11 0 -23 -27 -59 -142
l-28 -88 41 36 c24 20 50 34 62 32 18 -3 20 -9 17 -78 -4 -89 17 -193 54 -260
21 -38 244 -280 259 -280 2 0 1 15 -2 34 -4 26 -1 35 13 40 23 9 69 -41 146
-161 29 -45 55 -82 58 -82 3 -1 5 16 5 37 -1 44 10 72 29 72 8 0 40 -39 72
-87 135 -204 328 -433 365 -433 35 0 238 242 374 448 62 93 86 95 91 8 1 -23
2 -43 3 -45 1 -3 15 17 32 45 34 53 102 145 135 182 29 33 57 20 52 -24 -2
-19 -3 -34 -1 -34 2 0 55 53 118 118 158 160 198 247 194 412 0 36 -1 71 0 78
2 23 41 12 80 -24 l40 -35 -25 79 c-35 116 -51 150 -74 157 -31 10 -160 106
-209 155 -24 25 -40 36 -36 25 5 -11 10 -55 13 -98 7 -139 -25 -218 -138 -329
-70 -69 -170 -200 -187 -246 -4 -9 -9 -19 -12 -22 -3 -3 -26 -46 -50 -97 -47
-96 -83 -143 -131 -168 -16 -9 -44 -29 -61 -46 -108 -105 -328 -99 -429 12 -8
9 -29 23 -46 32 -53 27 -89 74 -143 185 -77 155 -149 261 -240 349 -100 98
-132 161 -139 278 -2 44 1 98 7 120 6 21 9 40 8 41 -1 2 -25 -20 -52 -47z"/>
<path d="M1572 1405 c23 -36 43 -63 45 -62 1 2 4 23 5 47 3 44 3 44 -44 62
l-47 17 41 -64z"/>
<path d="M2453 1449 c-41 -19 -41 -20 -36 -61 3 -24 7 -44 8 -46 1 -1 19 25
40 59 20 33 35 62 34 63 -2 2 -23 -5 -46 -15z"/>
<path d="M1943 1354 c-75 -36 -97 -98 -57 -159 37 -57 148 -76 223 -39 64 32
84 72 68 134 -7 30 -80 80 -117 81 -14 0 -35 2 -47 3 -12 1 -44 -8 -70 -20z"/>
<path d="M2006 1051 c-9 -14 -79 -45 -99 -43 -9 0 -15 -3 -12 -8 8 -13 83 -33
127 -33 47 0 128 23 128 36 0 6 -3 8 -6 4 -8 -8 -63 12 -96 35 -30 20 -35 22
-42 9z"/>
</g>
</svg>
